<svg width="1202" height="104" viewBox="0 0 1202 104" fill="none" xmlns="http://www.w3.org/2000/svg">
<path d="M843.254 22.8921C838.043 22.8921 833.804 27.1315 833.804 32.3423C833.804 38.8918 843.263 50.0796 843.263 50.0796C843.263 50.0796 852.704 38.5697 852.704 32.3423C852.704 27.1315 848.465 22.8921 843.254 22.8921ZM846.105 35.1094C845.319 35.8954 844.287 36.2885 843.254 36.2885C842.221 36.2885 841.189 35.8954 840.403 35.1094C838.831 33.5373 838.831 30.9791 840.403 29.4069C841.164 28.6452 842.177 28.2257 843.254 28.2257C844.331 28.2257 845.344 28.6454 846.105 29.4069C847.678 30.9791 847.678 33.5373 846.105 35.1094Z" fill="black"/>
<path d="M884.36 27.94C885.36 27.94 886.24 28.1667 887 28.62C887.773 29.06 888.373 29.7067 888.8 30.56C889.24 31.4 889.46 32.3933 889.46 33.54C889.46 34.6733 889.24 35.6667 888.8 36.52C888.373 37.36 887.773 38.0067 887 38.46C886.227 38.9133 885.347 39.14 884.36 39.14C883.24 39.14 882.293 38.8533 881.52 38.28C880.747 37.7067 880.213 36.9467 879.92 36V39H878.52V24.2H879.92V31.08C880.213 30.1333 880.747 29.3733 881.52 28.8C882.293 28.2267 883.24 27.94 884.36 27.94ZM883.98 29.18C883.207 29.18 882.507 29.36 881.88 29.72C881.267 30.08 880.787 30.5933 880.44 31.26C880.093 31.9133 879.92 32.6733 879.92 33.54C879.92 34.4067 880.093 35.1733 880.44 35.84C880.787 36.4933 881.267 37 881.88 37.36C882.507 37.72 883.207 37.9 883.98 37.9C885.22 37.9 886.207 37.5133 886.94 36.74C887.673 35.9533 888.04 34.8867 888.04 33.54C888.04 32.1933 887.673 31.1333 886.94 30.36C886.207 29.5733 885.22 29.18 883.98 29.18ZM901.397 28.08V39H899.997V36.3C899.717 37.2467 899.21 37.9667 898.477 38.46C897.744 38.9533 896.904 39.2 895.957 39.2C894.677 39.2 893.637 38.8 892.837 38C892.05 37.1867 891.657 36 891.657 34.44V28.08H893.057V34.32C893.057 35.52 893.357 36.44 893.957 37.08C894.557 37.7067 895.377 38.02 896.417 38.02C897.51 38.02 898.377 37.6733 899.017 36.98C899.67 36.2733 899.997 35.24 899.997 33.88V28.08H901.397ZM909.418 37.76V39H908.118C907.064 39 906.278 38.7533 905.758 38.26C905.238 37.7533 904.978 36.9067 904.978 35.72V29.3H903.318V28.08H904.978V25.32H906.398V28.08H909.398V29.3H906.398V35.74C906.398 36.5133 906.538 37.0467 906.818 37.34C907.098 37.62 907.591 37.76 908.298 37.76H909.418ZM921.518 27.94C922.625 27.94 923.565 28.2267 924.338 28.8C925.125 29.3733 925.665 30.1333 925.958 31.08V28.08H927.338V39H925.958V36C925.665 36.9467 925.125 37.7067 924.338 38.28C923.565 38.8533 922.625 39.14 921.518 39.14C920.532 39.14 919.645 38.9133 918.858 38.46C918.085 38.0067 917.478 37.36 917.038 36.52C916.612 35.6667 916.398 34.6733 916.398 33.54C916.398 32.3933 916.612 31.4 917.038 30.56C917.478 29.7067 918.085 29.06 918.858 28.62C919.632 28.1667 920.518 27.94 921.518 27.94ZM921.878 29.18C920.652 29.18 919.665 29.5733 918.918 30.36C918.185 31.1333 917.818 32.1933 917.818 33.54C917.818 34.8867 918.185 35.9533 918.918 36.74C919.665 37.5133 920.652 37.9 921.878 37.9C922.652 37.9 923.345 37.72 923.958 37.36C924.585 37 925.072 36.4933 925.418 35.84C925.778 35.1733 925.958 34.4067 925.958 33.54C925.958 32.6733 925.778 31.9133 925.418 31.26C925.072 30.5933 924.585 30.08 923.958 29.72C923.345 29.36 922.652 29.18 921.878 29.18ZM931.795 24.2V39H930.375V24.2H931.795ZM938.129 27.94C939.315 27.94 940.269 28.2533 940.989 28.88C941.709 29.5067 942.149 30.3533 942.309 31.42H940.969C940.889 30.7133 940.595 30.1333 940.089 29.68C939.595 29.2133 938.929 28.98 938.089 28.98C937.369 28.98 936.802 29.16 936.389 29.52C935.989 29.8667 935.789 30.3333 935.789 30.92C935.789 31.36 935.915 31.7133 936.169 31.98C936.435 32.2467 936.762 32.4533 937.149 32.6C937.535 32.7333 938.055 32.8733 938.709 33.02C939.509 33.2067 940.149 33.4 940.629 33.6C941.122 33.7867 941.542 34.0867 941.889 34.5C942.235 34.9133 942.409 35.4733 942.409 36.18C942.409 37.0467 942.082 37.76 941.429 38.32C940.789 38.8667 939.935 39.14 938.869 39.14C937.615 39.14 936.589 38.8333 935.789 38.22C934.989 37.5933 934.515 36.74 934.369 35.66H935.729C935.809 36.38 936.122 36.9667 936.669 37.42C937.215 37.8733 937.955 38.1 938.889 38.1C939.582 38.1 940.122 37.92 940.509 37.56C940.895 37.2 941.089 36.7333 941.089 36.16C941.089 35.6933 940.955 35.32 940.689 35.04C940.422 34.76 940.089 34.5533 939.689 34.42C939.302 34.2733 938.769 34.12 938.089 33.96C937.302 33.7733 936.669 33.5867 936.189 33.4C935.722 33.2133 935.322 32.9267 934.989 32.54C934.655 32.14 934.489 31.6 934.489 30.92C934.489 30.0267 934.815 29.3067 935.469 28.76C936.122 28.2133 937.009 27.94 938.129 27.94ZM949.905 27.94C950.945 27.94 951.872 28.1667 952.685 28.62C953.512 29.06 954.159 29.7067 954.625 30.56C955.092 31.4 955.325 32.3933 955.325 33.54C955.325 34.6867 955.092 35.68 954.625 36.52C954.159 37.36 953.512 38.0067 952.685 38.46C951.872 38.9133 950.945 39.14 949.905 39.14C948.865 39.14 947.932 38.9133 947.105 38.46C946.279 38.0067 945.625 37.36 945.145 36.52C944.679 35.6667 944.445 34.6733 944.445 33.54C944.445 32.3933 944.679 31.4 945.145 30.56C945.625 29.7067 946.279 29.06 947.105 28.62C947.932 28.1667 948.865 27.94 949.905 27.94ZM949.905 29.16C949.185 29.16 948.519 29.32 947.905 29.64C947.292 29.96 946.799 30.4533 946.425 31.12C946.052 31.7733 945.865 32.58 945.865 33.54C945.865 34.5 946.052 35.3067 946.425 35.96C946.799 36.6133 947.292 37.1 947.905 37.42C948.519 37.74 949.185 37.9 949.905 37.9C950.612 37.9 951.265 37.74 951.865 37.42C952.479 37.1 952.972 36.6133 953.345 35.96C953.719 35.3067 953.905 34.5 953.905 33.54C953.905 32.58 953.719 31.7733 953.345 31.12C952.972 30.4533 952.479 29.96 951.865 29.64C951.265 29.32 950.612 29.16 949.905 29.16ZM967.992 37.76V39H966.692C965.638 39 964.852 38.7533 964.332 38.26C963.812 37.7533 963.552 36.9067 963.552 35.72V29.3H961.892V28.08H963.552V25.32H964.972V28.08H967.972V29.3H964.972V35.74C964.972 36.5133 965.112 37.0467 965.392 37.34C965.672 37.62 966.165 37.76 966.872 37.76H967.992ZM975.757 27.88C977.024 27.88 978.051 28.2867 978.837 29.1C979.637 29.9 980.037 31.08 980.037 32.64V39H978.657V32.74C978.657 31.5533 978.357 30.6467 977.757 30.02C977.157 29.38 976.337 29.06 975.297 29.06C974.204 29.06 973.331 29.4133 972.677 30.12C972.037 30.8133 971.717 31.84 971.717 33.2V39H970.297V24.2H971.717V30.76C971.997 29.8267 972.504 29.1133 973.237 28.62C973.971 28.1267 974.811 27.88 975.757 27.88ZM987.753 37.98C988.739 37.98 989.566 37.7333 990.233 37.24C990.899 36.7467 991.299 36.08 991.433 35.24H992.913C992.713 36.4 992.159 37.34 991.253 38.06C990.346 38.78 989.199 39.14 987.813 39.14C986.773 39.14 985.846 38.92 985.033 38.48C984.233 38.0267 983.606 37.38 983.153 36.54C982.699 35.6867 982.473 34.6867 982.473 33.54C982.473 32.3933 982.699 31.4 983.153 30.56C983.606 29.7067 984.233 29.06 985.033 28.62C985.846 28.1667 986.773 27.94 987.813 27.94C988.879 27.94 989.799 28.1667 990.573 28.62C991.359 29.06 991.953 29.6533 992.353 30.4C992.766 31.1467 992.973 31.96 992.973 32.84C992.973 33.2133 992.946 33.5533 992.893 33.86H983.853C983.866 34.78 984.053 35.5533 984.413 36.18C984.786 36.7933 985.266 37.2467 985.853 37.54C986.439 37.8333 987.073 37.98 987.753 37.98ZM987.813 29.08C987.106 29.08 986.459 29.2267 985.873 29.52C985.286 29.8133 984.806 30.2667 984.433 30.88C984.073 31.48 983.879 32.2333 983.853 33.14H991.573C991.626 32.2467 991.479 31.4933 991.133 30.88C990.786 30.2667 990.319 29.8133 989.733 29.52C989.146 29.2267 988.506 29.08 987.813 29.08ZM1002.11 24.2V39H1000.69V24.2H1002.11ZM1009.9 37.98C1010.89 37.98 1011.71 37.7333 1012.38 37.24C1013.05 36.7467 1013.45 36.08 1013.58 35.24H1015.06C1014.86 36.4 1014.31 37.34 1013.4 38.06C1012.49 38.78 1011.35 39.14 1009.96 39.14C1008.92 39.14 1007.99 38.92 1007.18 38.48C1006.38 38.0267 1005.75 37.38 1005.3 36.54C1004.85 35.6867 1004.62 34.6867 1004.62 33.54C1004.62 32.3933 1004.85 31.4 1005.3 30.56C1005.75 29.7067 1006.38 29.06 1007.18 28.62C1007.99 28.1667 1008.92 27.94 1009.96 27.94C1011.03 27.94 1011.95 28.1667 1012.72 28.62C1013.51 29.06 1014.1 29.6533 1014.5 30.4C1014.91 31.1467 1015.12 31.96 1015.12 32.84C1015.12 33.2133 1015.09 33.5533 1015.04 33.86H1006C1006.01 34.78 1006.2 35.5533 1006.56 36.18C1006.93 36.7933 1007.41 37.2467 1008 37.54C1008.59 37.8333 1009.22 37.98 1009.9 37.98ZM1009.96 29.08C1009.25 29.08 1008.61 29.2267 1008.02 29.52C1007.43 29.8133 1006.95 30.2667 1006.58 30.88C1006.22 31.48 1006.03 32.2333 1006 33.14H1013.72C1013.77 32.2467 1013.63 31.4933 1013.28 30.88C1012.93 30.2667 1012.47 29.8133 1011.88 29.52C1011.29 29.2267 1010.65 29.08 1009.96 29.08ZM1022.24 27.94C1023.35 27.94 1024.29 28.2267 1025.06 28.8C1025.85 29.3733 1026.39 30.1333 1026.68 31.08V28.08H1028.06V39H1026.68V36C1026.39 36.9467 1025.85 37.7067 1025.06 38.28C1024.29 38.8533 1023.35 39.14 1022.24 39.14C1021.25 39.14 1020.37 38.9133 1019.58 38.46C1018.81 38.0067 1018.2 37.36 1017.76 36.52C1017.33 35.6667 1017.12 34.6733 1017.12 33.54C1017.12 32.3933 1017.33 31.4 1017.76 30.56C1018.2 29.7067 1018.81 29.06 1019.58 28.62C1020.35 28.1667 1021.24 27.94 1022.24 27.94ZM1022.6 29.18C1021.37 29.18 1020.39 29.5733 1019.64 30.36C1018.91 31.1333 1018.54 32.1933 1018.54 33.54C1018.54 34.8867 1018.91 35.9533 1019.64 36.74C1020.39 37.5133 1021.37 37.9 1022.6 37.9C1023.37 37.9 1024.07 37.72 1024.68 37.36C1025.31 37 1025.79 36.4933 1026.14 35.84C1026.5 35.1733 1026.68 34.4067 1026.68 33.54C1026.68 32.6733 1026.5 31.9133 1026.14 31.26C1025.79 30.5933 1025.31 30.08 1024.68 29.72C1024.07 29.36 1023.37 29.18 1022.6 29.18ZM1036.94 27.94C1037.94 27.94 1038.82 28.1667 1039.58 28.62C1040.35 29.06 1040.95 29.7067 1041.38 30.56C1041.82 31.4 1042.04 32.3933 1042.04 33.54C1042.04 34.6733 1041.82 35.6667 1041.38 36.52C1040.95 37.36 1040.35 38.0067 1039.58 38.46C1038.8 38.9133 1037.92 39.14 1036.94 39.14C1035.82 39.14 1034.87 38.8533 1034.1 38.28C1033.32 37.7067 1032.79 36.9467 1032.5 36V44.16H1031.1V28.08H1032.5V31.08C1032.79 30.1333 1033.32 29.3733 1034.1 28.8C1034.87 28.2267 1035.82 27.94 1036.94 27.94ZM1036.56 29.18C1035.78 29.18 1035.08 29.36 1034.46 29.72C1033.84 30.08 1033.36 30.5933 1033.02 31.26C1032.67 31.9133 1032.5 32.6733 1032.5 33.54C1032.5 34.4067 1032.67 35.1733 1033.02 35.84C1033.36 36.4933 1033.84 37 1034.46 37.36C1035.08 37.72 1035.78 37.9 1036.56 37.9C1037.8 37.9 1038.78 37.5133 1039.52 36.74C1040.25 35.9533 1040.62 34.8867 1040.62 33.54C1040.62 32.1933 1040.25 31.1333 1039.52 30.36C1038.78 29.5733 1037.8 29.18 1036.56 29.18ZM1049.43 24.84C1049.43 24.5467 1049.52 24.3133 1049.71 24.14C1049.91 23.9667 1050.16 23.88 1050.47 23.88C1050.78 23.88 1051.02 23.9667 1051.21 24.14C1051.4 24.3133 1051.49 24.5467 1051.49 24.84C1051.49 25.12 1051.4 25.3467 1051.21 25.52C1051.02 25.6933 1050.78 25.78 1050.47 25.78C1050.16 25.78 1049.91 25.6933 1049.71 25.52C1049.52 25.3467 1049.43 25.12 1049.43 24.84ZM1051.17 28.08V39H1049.75V28.08H1051.17ZM1059.66 27.88C1060.93 27.88 1061.96 28.2867 1062.74 29.1C1063.54 29.9 1063.94 31.08 1063.94 32.64V39H1062.56V32.74C1062.56 31.5533 1062.26 30.6467 1061.66 30.02C1061.06 29.38 1060.24 29.06 1059.2 29.06C1058.11 29.06 1057.24 29.4133 1056.58 30.12C1055.94 30.8133 1055.62 31.84 1055.62 33.2V39H1054.2V28.08H1055.62V30.76C1055.9 29.8267 1056.41 29.1133 1057.14 28.62C1057.88 28.1267 1058.72 27.88 1059.66 27.88ZM1071.86 37.76V39H1070.56C1069.51 39 1068.72 38.7533 1068.2 38.26C1067.68 37.7533 1067.42 36.9067 1067.42 35.72V29.3H1065.76V28.08H1067.42V25.32H1068.84V28.08H1071.84V29.3H1068.84V35.74C1068.84 36.5133 1068.98 37.0467 1069.26 37.34C1069.54 37.62 1070.03 37.76 1070.74 37.76H1071.86ZM1079.1 27.94C1080.14 27.94 1081.07 28.1667 1081.88 28.62C1082.71 29.06 1083.36 29.7067 1083.82 30.56C1084.29 31.4 1084.52 32.3933 1084.52 33.54C1084.52 34.6867 1084.29 35.68 1083.82 36.52C1083.36 37.36 1082.71 38.0067 1081.88 38.46C1081.07 38.9133 1080.14 39.14 1079.1 39.14C1078.06 39.14 1077.13 38.9133 1076.3 38.46C1075.48 38.0067 1074.82 37.36 1074.34 36.52C1073.88 35.6667 1073.64 34.6733 1073.64 33.54C1073.64 32.3933 1073.88 31.4 1074.34 30.56C1074.82 29.7067 1075.48 29.06 1076.3 28.62C1077.13 28.1667 1078.06 27.94 1079.1 27.94ZM1079.1 29.16C1078.38 29.16 1077.72 29.32 1077.1 29.64C1076.49 29.96 1076 30.4533 1075.62 31.12C1075.25 31.7733 1075.06 32.58 1075.06 33.54C1075.06 34.5 1075.25 35.3067 1075.62 35.96C1076 36.6133 1076.49 37.1 1077.1 37.42C1077.72 37.74 1078.38 37.9 1079.1 37.9C1079.81 37.9 1080.46 37.74 1081.06 37.42C1081.68 37.1 1082.17 36.6133 1082.54 35.96C1082.92 35.3067 1083.1 34.5 1083.1 33.54C1083.1 32.58 1082.92 31.7733 1082.54 31.12C1082.17 30.4533 1081.68 29.96 1081.06 29.64C1080.46 29.32 1079.81 29.16 1079.1 29.16ZM1096.99 37.98C1097.98 37.98 1098.8 37.7333 1099.47 37.24C1100.14 36.7467 1100.54 36.08 1100.67 35.24H1102.15C1101.95 36.4 1101.4 37.34 1100.49 38.06C1099.58 38.78 1098.44 39.14 1097.05 39.14C1096.01 39.14 1095.08 38.92 1094.27 38.48C1093.47 38.0267 1092.84 37.38 1092.39 36.54C1091.94 35.6867 1091.71 34.6867 1091.71 33.54C1091.71 32.3933 1091.94 31.4 1092.39 30.56C1092.84 29.7067 1093.47 29.06 1094.27 28.62C1095.08 28.1667 1096.01 27.94 1097.05 27.94C1098.12 27.94 1099.04 28.1667 1099.81 28.62C1100.6 29.06 1101.19 29.6533 1101.59 30.4C1102 31.1467 1102.21 31.96 1102.21 32.84C1102.21 33.2133 1102.18 33.5533 1102.13 33.86H1093.09C1093.1 34.78 1093.29 35.5533 1093.65 36.18C1094.02 36.7933 1094.5 37.2467 1095.09 37.54C1095.68 37.8333 1096.31 37.98 1096.99 37.98ZM1097.05 29.08C1096.34 29.08 1095.7 29.2267 1095.11 29.52C1094.52 29.8133 1094.04 30.2667 1093.67 30.88C1093.31 31.48 1093.12 32.2333 1093.09 33.14H1100.81C1100.86 32.2467 1100.72 31.4933 1100.37 30.88C1100.02 30.2667 1099.56 29.8133 1098.97 29.52C1098.38 29.2267 1097.74 29.08 1097.05 29.08ZM1106.15 24.2V39H1104.73V24.2H1106.15ZM1113.94 37.98C1114.93 37.98 1115.76 37.7333 1116.42 37.24C1117.09 36.7467 1117.49 36.08 1117.62 35.24H1119.1C1118.9 36.4 1118.35 37.34 1117.44 38.06C1116.54 38.78 1115.39 39.14 1114 39.14C1112.96 39.14 1112.04 38.92 1111.22 38.48C1110.42 38.0267 1109.8 37.38 1109.34 36.54C1108.89 35.6867 1108.66 34.6867 1108.66 33.54C1108.66 32.3933 1108.89 31.4 1109.34 30.56C1109.8 29.7067 1110.42 29.06 1111.22 28.62C1112.04 28.1667 1112.96 27.94 1114 27.94C1115.07 27.94 1115.99 28.1667 1116.76 28.62C1117.55 29.06 1118.14 29.6533 1118.54 30.4C1118.96 31.1467 1119.16 31.96 1119.16 32.84C1119.16 33.2133 1119.14 33.5533 1119.08 33.86H1110.04C1110.06 34.78 1110.24 35.5533 1110.6 36.18C1110.98 36.7933 1111.46 37.2467 1112.04 37.54C1112.63 37.8333 1113.26 37.98 1113.94 37.98ZM1114 29.08C1113.3 29.08 1112.65 29.2267 1112.06 29.52C1111.48 29.8133 1111 30.2667 1110.62 30.88C1110.26 31.48 1110.07 32.2333 1110.04 33.14H1117.76C1117.82 32.2467 1117.67 31.4933 1117.32 30.88C1116.98 30.2667 1116.51 29.8133 1115.92 29.52C1115.34 29.2267 1114.7 29.08 1114 29.08ZM1126.5 27.94C1127.89 27.94 1129.04 28.3067 1129.94 29.04C1130.86 29.7733 1131.42 30.7467 1131.62 31.96H1130.16C1130.02 31.0933 1129.61 30.4133 1128.94 29.92C1128.28 29.4133 1127.46 29.16 1126.48 29.16C1125.78 29.16 1125.12 29.32 1124.52 29.64C1123.94 29.96 1123.46 30.4533 1123.1 31.12C1122.76 31.7733 1122.58 32.58 1122.58 33.54C1122.58 34.5 1122.76 35.3133 1123.1 35.98C1123.46 36.6333 1123.94 37.12 1124.52 37.44C1125.12 37.76 1125.78 37.92 1126.48 37.92C1127.46 37.92 1128.28 37.6733 1128.94 37.18C1129.61 36.6733 1130.02 35.9867 1130.16 35.12H1131.62C1131.42 36.3333 1130.86 37.3067 1129.94 38.04C1129.04 38.7733 1127.89 39.14 1126.5 39.14C1125.46 39.14 1124.54 38.92 1123.72 38.48C1122.92 38.0267 1122.3 37.38 1121.84 36.54C1121.39 35.6867 1121.16 34.6867 1121.16 33.54C1121.16 32.3933 1121.39 31.4 1121.84 30.56C1122.3 29.7067 1122.92 29.06 1123.72 28.62C1124.54 28.1667 1125.46 27.94 1126.5 27.94ZM1139.11 37.76V39H1137.81C1136.75 39 1135.97 38.7533 1135.45 38.26C1134.93 37.7533 1134.67 36.9067 1134.67 35.72V29.3H1133.01V28.08H1134.67V25.32H1136.09V28.08H1139.09V29.3H1136.09V35.74C1136.09 36.5133 1136.23 37.0467 1136.51 37.34C1136.79 37.62 1137.28 37.76 1137.99 37.76H1139.11ZM1142.83 30.34C1143.15 29.5533 1143.66 28.9467 1144.37 28.52C1145.08 28.0933 1145.94 27.88 1146.95 27.88V29.4H1146.49C1145.44 29.4 1144.56 29.6867 1143.87 30.26C1143.18 30.82 1142.83 31.74 1142.83 33.02V39H1141.41V28.08H1142.83V30.34ZM1153.75 27.94C1154.79 27.94 1155.72 28.1667 1156.53 28.62C1157.36 29.06 1158.01 29.7067 1158.47 30.56C1158.94 31.4 1159.17 32.3933 1159.17 33.54C1159.17 34.6867 1158.94 35.68 1158.47 36.52C1158.01 37.36 1157.36 38.0067 1156.53 38.46C1155.72 38.9133 1154.79 39.14 1153.75 39.14C1152.71 39.14 1151.78 38.9133 1150.95 38.46C1150.13 38.0067 1149.47 37.36 1148.99 36.52C1148.53 35.6667 1148.29 34.6733 1148.29 33.54C1148.29 32.3933 1148.53 31.4 1148.99 30.56C1149.47 29.7067 1150.13 29.06 1150.95 28.62C1151.78 28.1667 1152.71 27.94 1153.75 27.94ZM1153.75 29.16C1153.03 29.16 1152.37 29.32 1151.75 29.64C1151.14 29.96 1150.65 30.4533 1150.27 31.12C1149.9 31.7733 1149.71 32.58 1149.71 33.54C1149.71 34.5 1149.9 35.3067 1150.27 35.96C1150.65 36.6133 1151.14 37.1 1151.75 37.42C1152.37 37.74 1153.03 37.9 1153.75 37.9C1154.46 37.9 1155.11 37.74 1155.71 37.42C1156.33 37.1 1156.82 36.6133 1157.19 35.96C1157.57 35.3067 1157.75 34.5 1157.75 33.54C1157.75 32.58 1157.57 31.7733 1157.19 31.12C1156.82 30.4533 1156.33 29.96 1155.71 29.64C1155.11 29.32 1154.46 29.16 1153.75 29.16ZM1167.14 27.88C1168.41 27.88 1169.44 28.2867 1170.22 29.1C1171.02 29.9 1171.42 31.08 1171.42 32.64V39H1170.04V32.74C1170.04 31.5533 1169.74 30.6467 1169.14 30.02C1168.54 29.38 1167.72 29.06 1166.68 29.06C1165.59 29.06 1164.72 29.4133 1164.06 30.12C1163.42 30.8133 1163.1 31.84 1163.1 33.2V39H1161.68V28.08H1163.1V30.76C1163.38 29.8267 1163.89 29.1133 1164.62 28.62C1165.36 28.1267 1166.2 27.88 1167.14 27.88ZM1174.06 24.84C1174.06 24.5467 1174.15 24.3133 1174.34 24.14C1174.54 23.9667 1174.79 23.88 1175.1 23.88C1175.41 23.88 1175.65 23.9667 1175.84 24.14C1176.03 24.3133 1176.12 24.5467 1176.12 24.84C1176.12 25.12 1176.03 25.3467 1175.84 25.52C1175.65 25.6933 1175.41 25.78 1175.1 25.78C1174.79 25.78 1174.54 25.6933 1174.34 25.52C1174.15 25.3467 1174.06 25.12 1174.06 24.84ZM1175.8 28.08V39H1174.38V28.08H1175.8ZM1183.65 27.94C1185.04 27.94 1186.19 28.3067 1187.09 29.04C1188.01 29.7733 1188.57 30.7467 1188.77 31.96H1187.31C1187.17 31.0933 1186.76 30.4133 1186.09 29.92C1185.43 29.4133 1184.61 29.16 1183.63 29.16C1182.93 29.16 1182.27 29.32 1181.67 29.64C1181.09 29.96 1180.61 30.4533 1180.25 31.12C1179.91 31.7733 1179.73 32.58 1179.73 33.54C1179.73 34.5 1179.91 35.3133 1180.25 35.98C1180.61 36.6333 1181.09 37.12 1181.67 37.44C1182.27 37.76 1182.93 37.92 1183.63 37.92C1184.61 37.92 1185.43 37.6733 1186.09 37.18C1186.76 36.6733 1187.17 35.9867 1187.31 35.12H1188.77C1188.57 36.3333 1188.01 37.3067 1187.09 38.04C1186.19 38.7733 1185.04 39.14 1183.65 39.14C1182.61 39.14 1181.69 38.92 1180.87 38.48C1180.07 38.0267 1179.45 37.38 1178.99 36.54C1178.54 35.6867 1178.31 34.6867 1178.31 33.54C1178.31 32.3933 1178.54 31.4 1178.99 30.56C1179.45 29.7067 1180.07 29.06 1180.87 28.62C1181.69 28.1667 1182.61 27.94 1183.65 27.94ZM883.48 67.76V69H882.18C881.127 69 880.34 68.7533 879.82 68.26C879.3 67.7533 879.04 66.9067 879.04 65.72V59.3H877.38V58.08H879.04V55.32H880.46V58.08H883.46V59.3H880.46V65.74C880.46 66.5133 880.6 67.0467 880.88 67.34C881.16 67.62 881.653 67.76 882.36 67.76H883.48ZM886.086 58.08L889.886 67.18L893.386 58.08H894.946L888.526 74.16H886.926L889.126 68.88L884.526 58.08H886.086ZM902.563 57.94C903.563 57.94 904.443 58.1667 905.203 58.62C905.976 59.06 906.576 59.7067 907.003 60.56C907.443 61.4 907.663 62.3933 907.663 63.54C907.663 64.6733 907.443 65.6667 907.003 66.52C906.576 67.36 905.976 68.0067 905.203 68.46C904.43 68.9133 903.55 69.14 902.563 69.14C901.443 69.14 900.496 68.8533 899.723 68.28C898.95 67.7067 898.416 66.9467 898.123 66V74.16H896.723V58.08H898.123V61.08C898.416 60.1333 898.95 59.3733 899.723 58.8C900.496 58.2267 901.443 57.94 902.563 57.94ZM902.183 59.18C901.41 59.18 900.71 59.36 900.083 59.72C899.47 60.08 898.99 60.5933 898.643 61.26C898.296 61.9133 898.123 62.6733 898.123 63.54C898.123 64.4067 898.296 65.1733 898.643 65.84C898.99 66.4933 899.47 67 900.083 67.36C900.71 67.72 901.41 67.9 902.183 67.9C903.423 67.9 904.41 67.5133 905.143 66.74C905.876 65.9533 906.243 64.8867 906.243 63.54C906.243 62.1933 905.876 61.1333 905.143 60.36C904.41 59.5733 903.423 59.18 902.183 59.18ZM914.94 67.98C915.927 67.98 916.753 67.7333 917.42 67.24C918.087 66.7467 918.487 66.08 918.62 65.24H920.1C919.9 66.4 919.347 67.34 918.44 68.06C917.533 68.78 916.387 69.14 915 69.14C913.96 69.14 913.033 68.92 912.22 68.48C911.42 68.0267 910.793 67.38 910.34 66.54C909.887 65.6867 909.66 64.6867 909.66 63.54C909.66 62.3933 909.887 61.4 910.34 60.56C910.793 59.7067 911.42 59.06 912.22 58.62C913.033 58.1667 913.96 57.94 915 57.94C916.067 57.94 916.987 58.1667 917.76 58.62C918.547 59.06 919.14 59.6533 919.54 60.4C919.953 61.1467 920.16 61.96 920.16 62.84C920.16 63.2133 920.133 63.5533 920.08 63.86H911.04C911.053 64.78 911.24 65.5533 911.6 66.18C911.973 66.7933 912.453 67.2467 913.04 67.54C913.627 67.8333 914.26 67.98 914.94 67.98ZM915 59.08C914.293 59.08 913.647 59.2267 913.06 59.52C912.473 59.8133 911.993 60.2667 911.62 60.88C911.26 61.48 911.067 62.2333 911.04 63.14H918.76C918.813 62.2467 918.667 61.4933 918.32 60.88C917.973 60.2667 917.507 59.8133 916.92 59.52C916.333 59.2267 915.693 59.08 915 59.08ZM925.98 57.94C927.167 57.94 928.12 58.2533 928.84 58.88C929.56 59.5067 930 60.3533 930.16 61.42H928.82C928.74 60.7133 928.447 60.1333 927.94 59.68C927.447 59.2133 926.78 58.98 925.94 58.98C925.22 58.98 924.653 59.16 924.24 59.52C923.84 59.8667 923.64 60.3333 923.64 60.92C923.64 61.36 923.767 61.7133 924.02 61.98C924.287 62.2467 924.613 62.4533 925 62.6C925.387 62.7333 925.907 62.8733 926.56 63.02C927.36 63.2067 928 63.4 928.48 63.6C928.973 63.7867 929.393 64.0867 929.74 64.5C930.087 64.9133 930.26 65.4733 930.26 66.18C930.26 67.0467 929.933 67.76 929.28 68.32C928.64 68.8667 927.787 69.14 926.72 69.14C925.467 69.14 924.44 68.8333 923.64 68.22C922.84 67.5933 922.367 66.74 922.22 65.66H923.58C923.66 66.38 923.973 66.9667 924.52 67.42C925.067 67.8733 925.807 68.1 926.74 68.1C927.433 68.1 927.973 67.92 928.36 67.56C928.747 67.2 928.94 66.7333 928.94 66.16C928.94 65.6933 928.807 65.32 928.54 65.04C928.273 64.76 927.94 64.5533 927.54 64.42C927.153 64.2733 926.62 64.12 925.94 63.96C925.153 63.7733 924.52 63.5867 924.04 63.4C923.573 63.2133 923.173 62.9267 922.84 62.54C922.507 62.14 922.34 61.6 922.34 60.92C922.34 60.0267 922.667 59.3067 923.32 58.76C923.973 58.2133 924.86 57.94 925.98 57.94ZM937.577 67.98C938.564 67.98 939.39 67.7333 940.057 67.24C940.724 66.7467 941.124 66.08 941.257 65.24H942.737C942.537 66.4 941.984 67.34 941.077 68.06C940.17 68.78 939.024 69.14 937.637 69.14C936.597 69.14 935.67 68.92 934.857 68.48C934.057 68.0267 933.43 67.38 932.977 66.54C932.524 65.6867 932.297 64.6867 932.297 63.54C932.297 62.3933 932.524 61.4 932.977 60.56C933.43 59.7067 934.057 59.06 934.857 58.62C935.67 58.1667 936.597 57.94 937.637 57.94C938.704 57.94 939.624 58.1667 940.397 58.62C941.184 59.06 941.777 59.6533 942.177 60.4C942.59 61.1467 942.797 61.96 942.797 62.84C942.797 63.2133 942.77 63.5533 942.717 63.86H933.677C933.69 64.78 933.877 65.5533 934.237 66.18C934.61 66.7933 935.09 67.2467 935.677 67.54C936.264 67.8333 936.897 67.98 937.577 67.98ZM937.637 59.08C936.93 59.08 936.284 59.2267 935.697 59.52C935.11 59.8133 934.63 60.2667 934.257 60.88C933.897 61.48 933.704 62.2333 933.677 63.14H941.397C941.45 62.2467 941.304 61.4933 940.957 60.88C940.61 60.2667 940.144 59.8133 939.557 59.52C938.97 59.2267 938.33 59.08 937.637 59.08ZM950.277 67.76V69H948.977C947.924 69 947.137 68.7533 946.617 68.26C946.097 67.7533 945.837 66.9067 945.837 65.72V59.3H944.177V58.08H945.837V55.32H947.257V58.08H950.257V59.3H947.257V65.74C947.257 66.5133 947.397 67.0467 947.677 67.34C947.957 67.62 948.45 67.76 949.157 67.76H950.277ZM957.543 67.76V69H956.243C955.189 69 954.403 68.7533 953.883 68.26C953.363 67.7533 953.103 66.9067 953.103 65.72V59.3H951.443V58.08H953.103V55.32H954.523V58.08H957.523V59.3H954.523V65.74C954.523 66.5133 954.663 67.0467 954.943 67.34C955.223 67.62 955.716 67.76 956.423 67.76H957.543ZM959.528 54.84C959.528 54.5467 959.621 54.3133 959.808 54.14C960.008 53.9667 960.261 53.88 960.568 53.88C960.875 53.88 961.121 53.9667 961.308 54.14C961.495 54.3133 961.588 54.5467 961.588 54.84C961.588 55.12 961.495 55.3467 961.308 55.52C961.121 55.6933 960.875 55.78 960.568 55.78C960.261 55.78 960.008 55.6933 959.808 55.52C959.621 55.3467 959.528 55.12 959.528 54.84ZM961.268 58.08V69H959.848V58.08H961.268ZM969.761 57.88C971.028 57.88 972.055 58.2867 972.841 59.1C973.641 59.9 974.041 61.08 974.041 62.64V69H972.661V62.74C972.661 61.5533 972.361 60.6467 971.761 60.02C971.161 59.38 970.341 59.06 969.301 59.06C968.208 59.06 967.335 59.4133 966.681 60.12C966.041 60.8133 965.721 61.84 965.721 63.2V69H964.301V58.08H965.721V60.76C966.001 59.8267 966.508 59.1133 967.241 58.62C967.975 58.1267 968.815 57.88 969.761 57.88ZM981.597 57.94C982.703 57.94 983.643 58.2267 984.417 58.8C985.203 59.3733 985.743 60.1333 986.037 61.08V58.08H987.417V69.26C987.417 70.2733 987.203 71.16 986.777 71.92C986.35 72.6933 985.757 73.2867 984.997 73.7C984.237 74.1267 983.37 74.34 982.397 74.34C980.97 74.34 979.797 73.9933 978.877 73.3C977.97 72.62 977.377 71.6933 977.097 70.52H978.497C978.737 71.32 979.177 71.9533 979.817 72.42C980.47 72.8867 981.303 73.12 982.317 73.12C983.01 73.12 983.637 72.9667 984.197 72.66C984.77 72.3667 985.217 71.9267 985.537 71.34C985.87 70.7533 986.037 70.06 986.037 69.26V66C985.743 66.9467 985.203 67.7067 984.417 68.28C983.643 68.8533 982.703 69.14 981.597 69.14C980.61 69.14 979.723 68.9133 978.937 68.46C978.163 68.0067 977.557 67.36 977.117 66.52C976.69 65.6667 976.477 64.6733 976.477 63.54C976.477 62.3933 976.69 61.4 977.117 60.56C977.557 59.7067 978.163 59.06 978.937 58.62C979.71 58.1667 980.597 57.94 981.597 57.94ZM981.957 59.18C980.73 59.18 979.743 59.5733 978.997 60.36C978.263 61.1333 977.897 62.1933 977.897 63.54C977.897 64.8867 978.263 65.9533 978.997 66.74C979.743 67.5133 980.73 67.9 981.957 67.9C982.73 67.9 983.423 67.72 984.037 67.36C984.663 67 985.15 66.4933 985.497 65.84C985.857 65.1733 986.037 64.4067 986.037 63.54C986.037 62.6733 985.857 61.9133 985.497 61.26C985.15 60.5933 984.663 60.08 984.037 59.72C983.423 59.36 982.73 59.18 981.957 59.18Z" fill="#333333"/>
<path d="M466.66 55.2H462.2V59.7H460.9V55.2H456.46V54H460.9V49.5H462.2V54H466.66V55.2ZM471.265 58.18C471.412 59.0467 471.745 59.7133 472.265 60.18C472.785 60.6467 473.499 60.88 474.405 60.88C475.659 60.88 476.585 60.3933 477.185 59.42C477.799 58.4333 478.079 56.8067 478.025 54.54C477.772 55.2733 477.285 55.8533 476.565 56.28C475.859 56.6933 475.045 56.9 474.125 56.9C472.725 56.9 471.599 56.48 470.745 55.64C469.905 54.8 469.485 53.6333 469.485 52.14C469.485 51.2467 469.659 50.44 470.005 49.72C470.352 49 470.879 48.4333 471.585 48.02C472.292 47.6067 473.159 47.4 474.185 47.4C476.079 47.4 477.399 48.02 478.145 49.26C478.892 50.4867 479.265 52.2533 479.265 54.56C479.265 57.0533 478.892 58.9267 478.145 60.18C477.412 61.4333 476.145 62.06 474.345 62.06C473.025 62.06 471.999 61.7067 471.265 61C470.532 60.28 470.099 59.34 469.965 58.18H471.265ZM474.345 55.7C474.972 55.7 475.545 55.5733 476.065 55.32C476.599 55.0533 477.025 54.6667 477.345 54.16C477.665 53.6533 477.825 53.0467 477.825 52.34C477.825 51.2467 477.512 50.3467 476.885 49.64C476.272 48.9333 475.385 48.58 474.225 48.58C473.199 48.58 472.372 48.9 471.745 49.54C471.132 50.18 470.825 51.0333 470.825 52.1C470.825 53.22 471.132 54.1 471.745 54.74C472.359 55.38 473.225 55.7 474.345 55.7ZM481.285 58.6V57.54L488.565 47.74H490.225V57.38H492.365V58.6H490.225V62H488.845V58.6H481.285ZM488.905 49.28L482.905 57.38H488.905V49.28ZM499.039 58.6V57.54L506.319 47.74H507.979V57.38H510.119V58.6H507.979V62H506.599V58.6H499.039ZM506.659 49.28L500.659 57.38H506.659V49.28ZM511.305 58.6V57.54L518.585 47.74H520.245V57.38H522.385V58.6H520.245V62H518.865V58.6H511.305ZM518.925 49.28L512.925 57.38H518.925V49.28ZM523.571 58.6V57.54L530.851 47.74H532.511V57.38H534.651V58.6H532.511V62H531.131V58.6H523.571ZM531.191 49.28L525.191 57.38H531.191V49.28ZM535.836 58.6V57.54L543.116 47.74H544.776V57.38H546.916V58.6H544.776V62H543.396V58.6H535.836ZM543.456 49.28L537.456 57.38H543.456V49.28ZM563.25 48.86H555.93V53.98C556.263 53.5133 556.75 53.1333 557.39 52.84C558.03 52.5333 558.723 52.38 559.47 52.38C560.563 52.38 561.457 52.6067 562.15 53.06C562.843 53.5 563.343 54.08 563.65 54.8C563.957 55.5067 564.11 56.2667 564.11 57.08C564.11 58.0133 563.93 58.86 563.57 59.62C563.223 60.3667 562.683 60.96 561.95 61.4C561.23 61.84 560.33 62.06 559.25 62.06C557.877 62.06 556.763 61.7067 555.91 61C555.057 60.28 554.537 59.3133 554.35 58.1H555.73C555.903 58.98 556.303 59.66 556.93 60.14C557.557 60.62 558.33 60.86 559.25 60.86C560.41 60.86 561.283 60.52 561.87 59.84C562.47 59.1467 562.77 58.2333 562.77 57.1C562.77 55.9933 562.47 55.1333 561.87 54.52C561.27 53.8933 560.41 53.58 559.29 53.58C558.517 53.58 557.837 53.76 557.25 54.12C556.663 54.48 556.23 54.9667 555.95 55.58H554.63V47.64H563.25V48.86ZM575.594 48.86H568.274V53.98C568.607 53.5133 569.094 53.1333 569.734 52.84C570.374 52.5333 571.067 52.38 571.814 52.38C572.907 52.38 573.801 52.6067 574.494 53.06C575.187 53.5 575.687 54.08 575.994 54.8C576.301 55.5067 576.454 56.2667 576.454 57.08C576.454 58.0133 576.274 58.86 575.914 59.62C575.567 60.3667 575.027 60.96 574.294 61.4C573.574 61.84 572.674 62.06 571.594 62.06C570.221 62.06 569.107 61.7067 568.254 61C567.401 60.28 566.881 59.3133 566.694 58.1H568.074C568.247 58.98 568.647 59.66 569.274 60.14C569.901 60.62 570.674 60.86 571.594 60.86C572.754 60.86 573.627 60.52 574.214 59.84C574.814 59.1467 575.114 58.2333 575.114 57.1C575.114 55.9933 574.814 55.1333 574.214 54.52C573.614 53.8933 572.754 53.58 571.634 53.58C570.861 53.58 570.181 53.76 569.594 54.12C569.007 54.48 568.574 54.9667 568.294 55.58H566.974V47.64H575.594V48.86ZM587.938 48.86H580.618V53.98C580.951 53.5133 581.438 53.1333 582.078 52.84C582.718 52.5333 583.411 52.38 584.158 52.38C585.251 52.38 586.144 52.6067 586.838 53.06C587.531 53.5 588.031 54.08 588.338 54.8C588.644 55.5067 588.798 56.2667 588.798 57.08C588.798 58.0133 588.618 58.86 588.258 59.62C587.911 60.3667 587.371 60.96 586.638 61.4C585.918 61.84 585.018 62.06 583.938 62.06C582.564 62.06 581.451 61.7067 580.598 61C579.744 60.28 579.224 59.3133 579.038 58.1H580.418C580.591 58.98 580.991 59.66 581.618 60.14C582.244 60.62 583.018 60.86 583.938 60.86C585.098 60.86 585.971 60.52 586.558 59.84C587.158 59.1467 587.458 58.2333 587.458 57.1C587.458 55.9933 587.158 55.1333 586.558 54.52C585.958 53.8933 585.098 53.58 583.978 53.58C583.204 53.58 582.524 53.76 581.938 54.12C581.351 54.48 580.918 54.9667 580.638 55.58H579.318V47.64H587.938V48.86ZM600.281 48.86H592.961V53.98C593.295 53.5133 593.781 53.1333 594.421 52.84C595.061 52.5333 595.755 52.38 596.501 52.38C597.595 52.38 598.488 52.6067 599.181 53.06C599.875 53.5 600.375 54.08 600.681 54.8C600.988 55.5067 601.141 56.2667 601.141 57.08C601.141 58.0133 600.961 58.86 600.601 59.62C600.255 60.3667 599.715 60.96 598.981 61.4C598.261 61.84 597.361 62.06 596.281 62.06C594.908 62.06 593.795 61.7067 592.941 61C592.088 60.28 591.568 59.3133 591.381 58.1H592.761C592.935 58.98 593.335 59.66 593.961 60.14C594.588 60.62 595.361 60.86 596.281 60.86C597.441 60.86 598.315 60.52 598.901 59.84C599.501 59.1467 599.801 58.2333 599.801 57.1C599.801 55.9933 599.501 55.1333 598.901 54.52C598.301 53.8933 597.441 53.58 596.321 53.58C595.548 53.58 594.868 53.76 594.281 54.12C593.695 54.48 593.261 54.9667 592.981 55.58H591.661V47.64H600.281V48.86ZM617.313 51.16C617.02 49.4267 616.013 48.56 614.293 48.56C612.987 48.56 612.007 49.0667 611.353 50.08C610.7 51.0933 610.4 52.7533 610.453 55.06C610.72 54.26 611.227 53.6333 611.973 53.18C612.733 52.7133 613.6 52.48 614.573 52.48C615.973 52.48 617.08 52.9133 617.893 53.78C618.72 54.6333 619.133 55.8133 619.133 57.32C619.133 58.2 618.96 59 618.613 59.72C618.28 60.4267 617.76 60.9933 617.053 61.42C616.36 61.8467 615.493 62.06 614.453 62.06C612.467 62.06 611.093 61.4267 610.333 60.16C609.587 58.8933 609.213 57.1 609.213 54.78C609.213 49.8467 610.907 47.38 614.293 47.38C615.573 47.38 616.58 47.7333 617.313 48.44C618.047 49.1333 618.48 50.04 618.613 51.16H617.313ZM614.313 53.68C613.687 53.68 613.093 53.8067 612.533 54.06C611.973 54.3133 611.513 54.7 611.153 55.22C610.807 55.7267 610.633 56.3533 610.633 57.1C610.633 58.18 610.953 59.08 611.593 59.8C612.233 60.52 613.167 60.88 614.393 60.88C615.42 60.88 616.24 60.5667 616.853 59.94C617.467 59.3133 617.773 58.46 617.773 57.38C617.773 56.22 617.473 55.3133 616.873 54.66C616.273 54.0067 615.42 53.68 614.313 53.68Z" fill="#333333"/>
<g clip-path="url(#clip0_2_1941)">
<path d="M410.076 51.3489C411.104 50.3208 411.104 48.6481 410.076 47.62L406.46 44.0043C405.907 43.4512 405.141 43.171 404.358 43.2354C403.59 43.2986 402.895 43.6902 402.452 44.3095C402.36 44.4381 402.271 44.5685 402.184 44.7L409.454 51.9705L410.076 51.3489Z" fill="black"/>
<path d="M424.996 62.5394L421.38 58.9237C420.352 57.8958 418.679 57.8956 417.651 58.9237L417.029 59.5454L424.3 66.8161C424.432 66.7291 424.562 66.6399 424.69 66.548C425.31 66.1049 425.701 65.4102 425.765 64.6421C425.829 63.859 425.549 63.0926 424.996 62.5394V62.5394Z" fill="black"/>
<path d="M414.544 60.939C413.839 60.939 413.177 60.6648 412.679 60.1668L408.833 56.3207C408.335 55.8227 408.061 55.1605 408.061 54.4562C408.061 54.0561 408.149 53.6698 408.317 53.3193L401.286 46.2878C400.297 48.3646 399.859 50.6913 400.04 53.0267C400.283 56.1738 401.64 59.1301 403.861 61.3511L407.649 65.1386C409.87 67.3596 412.826 68.7168 415.973 68.9602C416.317 68.9868 416.661 69 417.003 69C418.988 69 420.941 68.5575 422.712 67.7141L415.68 60.6826C415.33 60.8503 414.944 60.939 414.544 60.939V60.939Z" fill="black"/>
<path d="M417.695 39C417.21 39 416.816 39.3935 416.816 39.8789C416.816 40.3643 417.21 40.7578 417.695 40.7578C423.511 40.7578 428.242 45.4891 428.242 51.3047C428.242 51.7901 428.636 52.1836 429.121 52.1836C429.606 52.1836 430 51.7901 430 51.3047C430 44.5199 424.48 39 417.695 39Z" fill="black"/>
<path d="M417.695 51.3039C417.695 51.3039 417.695 51.3042 417.695 51.3047C417.695 51.7901 418.089 52.1836 418.574 52.1836C419.059 52.1836 419.453 51.7901 419.453 51.3047C419.453 50.3354 418.664 49.5469 417.695 49.5469C417.21 49.5469 416.816 49.94 416.816 50.4254C416.816 50.9108 417.21 51.3039 417.695 51.3039Z" fill="black"/>
<path d="M417.695 47.7891C419.634 47.7891 421.211 49.3662 421.211 51.3047C421.211 51.7901 421.604 52.1836 422.09 52.1836C422.575 52.1836 422.969 51.7901 422.969 51.3047C422.969 48.3969 420.603 46.0312 417.695 46.0312C417.21 46.0312 416.816 46.4248 416.816 46.9102C416.816 47.3955 417.21 47.7891 417.695 47.7891Z" fill="black"/>
<path d="M417.695 42.5156C417.21 42.5156 416.816 42.9091 416.816 43.3945C416.816 43.8799 417.21 44.2734 417.695 44.2734C421.572 44.2734 424.726 47.4277 424.726 51.3047C424.726 51.7901 425.12 52.1836 425.605 52.1836C426.091 52.1836 426.484 51.7901 426.484 51.3047C426.484 46.4584 422.541 42.5156 417.695 42.5156Z" fill="black"/>
</g>
<g filter="url(#filter0_d_2_1941)">
<circle cx="31" cy="69" r="17" fill="white"/>
</g>
<g clip-path="url(#clip1_2_1941)">
<path d="M32.9985 64.9925H34.094V63.0845C33.905 63.0585 33.255 63 32.498 63C30.9185 63 29.8365 63.9935 29.8365 65.8195V67.5H28.0935V69.633H29.8365V75H31.9735V69.6335H33.646L33.9115 67.5005H31.973V66.031C31.9735 65.4145 32.1395 64.9925 32.9985 64.9925V64.9925Z" fill="black"/>
</g>
<g filter="url(#filter1_d_2_1941)">
<circle cx="81" cy="69" r="17" fill="white"/>
</g>
<g clip-path="url(#clip2_2_1941)">
<path d="M84.481 62H78.519C76.5786 62 75 63.5786 75 65.519V71.4811C75 73.4214 76.5786 75 78.519 75H84.4811C86.4214 75 88 73.4214 88 71.4811V65.519C88 63.5786 86.4214 62 84.481 62V62ZM87.2379 71.4811C87.2379 73.0012 86.0012 74.2379 84.481 74.2379H78.519C76.9988 74.2379 75.7621 73.0012 75.7621 71.4811V65.519C75.7621 63.9988 76.9988 62.7621 78.519 62.7621H84.4811C86.0012 62.7621 87.2379 63.9988 87.2379 65.519V71.4811Z" fill="black"/>
<path d="M81.5 64.9454C79.54 64.9454 77.9454 66.54 77.9454 68.5C77.9454 70.46 79.54 72.0546 81.5 72.0546C83.46 72.0546 85.0546 70.46 85.0546 68.5C85.0546 66.54 83.46 64.9454 81.5 64.9454V64.9454ZM81.5 71.2925C79.9603 71.2925 78.7075 70.0398 78.7075 68.5C78.7075 66.9603 79.9603 65.7075 81.5 65.7075C83.0398 65.7075 84.2925 66.9603 84.2925 68.5C84.2925 70.0398 83.0398 71.2925 81.5 71.2925V71.2925Z" fill="black"/>
<path d="M85.1396 63.683C84.5603 63.683 84.0892 64.1542 84.0892 64.7333C84.0892 65.3125 84.5603 65.7838 85.1396 65.7838C85.7188 65.7838 86.19 65.3125 86.19 64.7333C86.19 64.1541 85.7188 63.683 85.1396 63.683ZM85.1396 65.0215C84.9807 65.0215 84.8513 64.8922 84.8513 64.7333C84.8513 64.5743 84.9807 64.4451 85.1396 64.4451C85.2986 64.4451 85.4279 64.5743 85.4279 64.7333C85.4279 64.8922 85.2986 65.0215 85.1396 65.0215Z" fill="black"/>
</g>
<g filter="url(#filter2_d_2_1941)">
<circle cx="131" cy="69" r="17" fill="white"/>
</g>
<g clip-path="url(#clip3_2_1941)">
<path d="M137 65.4692C136.517 65.6813 136.001 65.8218 135.464 65.8901C136.017 65.5602 136.439 65.0418 136.637 64.417C136.122 64.7241 135.553 64.9411 134.947 65.0621C134.458 64.5413 133.761 64.2188 133 64.2188C131.525 64.2188 130.337 65.4164 130.337 66.8846C130.337 67.0958 130.355 67.2989 130.398 67.4923C128.183 67.3842 126.222 66.3223 124.905 64.7046C124.675 65.1036 124.54 65.5602 124.54 66.0518C124.54 66.9748 125.016 67.7929 125.724 68.2666C125.296 68.2585 124.876 68.1342 124.52 67.9384C124.52 67.9465 124.52 67.9571 124.52 67.9676C124.52 69.2627 125.444 70.3385 126.655 70.5863C126.438 70.6456 126.202 70.6741 125.956 70.6741C125.786 70.6741 125.614 70.6643 125.452 70.6286C125.797 71.684 126.777 72.4599 127.942 72.4851C127.036 73.1944 125.884 73.6218 124.638 73.6218C124.419 73.6218 124.21 73.6121 124 73.5852C125.181 74.3466 126.58 74.7812 128.089 74.7812C132.993 74.7812 135.674 70.7188 135.674 67.1974C135.674 67.0796 135.67 66.9658 135.664 66.8529C136.193 66.4775 136.638 66.0087 137 65.4692Z" fill="black"/>
</g>
<g filter="url(#filter3_d_2_1941)">
<circle cx="181" cy="69" r="17" fill="white"/>
</g>
<g clip-path="url(#clip4_2_1941)">
<path d="M185.997 74V73.9996H186V69.9653C186 67.9917 185.575 66.4714 183.268 66.4714C182.159 66.4714 181.414 67.0801 181.11 67.6571H181.078V66.6557H178.891V73.9996H181.169V70.3631C181.169 69.4057 181.35 68.4799 182.536 68.4799C183.704 68.4799 183.722 69.5725 183.722 70.4246V74H185.997Z" fill="black"/>
<path d="M175.182 66.6561H177.462V74H175.182V66.6561Z" fill="black"/>
<path d="M176.321 63C175.592 63 175 63.5917 175 64.3209C175 65.0501 175.592 65.6542 176.321 65.6542C177.05 65.6542 177.642 65.0501 177.642 64.3209C177.641 63.5917 177.05 63 176.321 63V63Z" fill="black"/>
</g>
<path d="M21.536 13.848V15.032H16.688V18.792H20.624V19.976H16.688V25H15.232V13.848H21.536ZM27.1185 25.144C26.2972 25.144 25.5505 24.9573 24.8785 24.584C24.2172 24.2107 23.6945 23.6827 23.3105 23C22.9372 22.3067 22.7505 21.5067 22.7505 20.6C22.7505 19.704 22.9425 18.9147 23.3265 18.232C23.7212 17.5387 24.2545 17.0107 24.9265 16.648C25.5985 16.2747 26.3505 16.088 27.1825 16.088C28.0145 16.088 28.7665 16.2747 29.4385 16.648C30.1105 17.0107 30.6385 17.5333 31.0225 18.216C31.4172 18.8987 31.6145 19.6933 31.6145 20.6C31.6145 21.5067 31.4118 22.3067 31.0065 23C30.6118 23.6827 30.0732 24.2107 29.3905 24.584C28.7078 24.9573 27.9505 25.144 27.1185 25.144ZM27.1185 23.864C27.6412 23.864 28.1318 23.7413 28.5905 23.496C29.0492 23.2507 29.4172 22.8827 29.6945 22.392C29.9825 21.9013 30.1265 21.304 30.1265 20.6C30.1265 19.896 29.9878 19.2987 29.7105 18.808C29.4332 18.3173 29.0705 17.9547 28.6225 17.72C28.1745 17.4747 27.6892 17.352 27.1665 17.352C26.6332 17.352 26.1425 17.4747 25.6945 17.72C25.2572 17.9547 24.9052 18.3173 24.6385 18.808C24.3718 19.2987 24.2385 19.896 24.2385 20.6C24.2385 21.3147 24.3665 21.9173 24.6225 22.408C24.8892 22.8987 25.2412 23.2667 25.6785 23.512C26.1158 23.7467 26.5958 23.864 27.1185 23.864ZM34.9849 13.16V25H33.5289V13.16H34.9849ZM38.9224 13.16V25H37.4664V13.16H38.9224ZM45.2279 25.144C44.4065 25.144 43.6599 24.9573 42.9879 24.584C42.3265 24.2107 41.8039 23.6827 41.4199 23C41.0465 22.3067 40.8599 21.5067 40.8599 20.6C40.8599 19.704 41.0519 18.9147 41.4359 18.232C41.8305 17.5387 42.3639 17.0107 43.0359 16.648C43.7079 16.2747 44.4599 16.088 45.2919 16.088C46.1239 16.088 46.8759 16.2747 47.5479 16.648C48.2199 17.0107 48.7479 17.5333 49.1319 18.216C49.5265 18.8987 49.7239 19.6933 49.7239 20.6C49.7239 21.5067 49.5212 22.3067 49.1159 23C48.7212 23.6827 48.1825 24.2107 47.4999 24.584C46.8172 24.9573 46.0599 25.144 45.2279 25.144ZM45.2279 23.864C45.7505 23.864 46.2412 23.7413 46.6999 23.496C47.1585 23.2507 47.5265 22.8827 47.8039 22.392C48.0919 21.9013 48.2359 21.304 48.2359 20.6C48.2359 19.896 48.0972 19.2987 47.8199 18.808C47.5425 18.3173 47.1799 17.9547 46.7319 17.72C46.2839 17.4747 45.7985 17.352 45.2759 17.352C44.7425 17.352 44.2519 17.4747 43.8039 17.72C43.3665 17.9547 43.0145 18.3173 42.7479 18.808C42.4812 19.2987 42.3479 19.896 42.3479 20.6C42.3479 21.3147 42.4759 21.9173 42.7319 22.408C42.9985 22.8987 43.3505 23.2667 43.7879 23.512C44.2252 23.7467 44.7052 23.864 45.2279 23.864ZM63.3183 16.232L60.5823 25H59.0783L56.9663 18.04L54.8543 25H53.3503L50.5983 16.232H52.0863L54.1023 23.592L56.2783 16.232H57.7663L59.8943 23.608L61.8783 16.232H63.3183ZM76.8049 16.232V25H75.3489V23.704C75.0715 24.152 74.6822 24.504 74.1809 24.76C73.6902 25.0053 73.1462 25.128 72.5489 25.128C71.8662 25.128 71.2529 24.9893 70.7089 24.712C70.1649 24.424 69.7329 23.9973 69.4129 23.432C69.1035 22.8667 68.9489 22.1787 68.9489 21.368V16.232H70.3889V21.176C70.3889 22.04 70.6075 22.7067 71.0449 23.176C71.4822 23.6347 72.0795 23.864 72.8369 23.864C73.6155 23.864 74.2289 23.624 74.6769 23.144C75.1249 22.664 75.3489 21.9653 75.3489 21.048V16.232H76.8049ZM82.3673 25.144C81.6953 25.144 81.0926 25.032 80.5593 24.808C80.0259 24.5733 79.6046 24.2533 79.2953 23.848C78.9859 23.432 78.8153 22.9573 78.7833 22.424H80.2873C80.3299 22.8613 80.5326 23.2187 80.8953 23.496C81.2686 23.7733 81.7539 23.912 82.3513 23.912C82.9059 23.912 83.3433 23.7893 83.6633 23.544C83.9833 23.2987 84.1433 22.9893 84.1433 22.616C84.1433 22.232 83.9726 21.9493 83.6313 21.768C83.2899 21.576 82.7619 21.3893 82.0473 21.208C81.3966 21.0373 80.8633 20.8667 80.4473 20.696C80.0419 20.5147 79.6899 20.2533 79.3913 19.912C79.1033 19.56 78.9593 19.1013 78.9593 18.536C78.9593 18.088 79.0926 17.6773 79.3593 17.304C79.6259 16.9307 80.0046 16.6373 80.4953 16.424C80.9859 16.2 81.5459 16.088 82.1753 16.088C83.1459 16.088 83.9299 16.3333 84.5273 16.824C85.1246 17.3147 85.4446 17.9867 85.4873 18.84H84.0313C83.9993 18.3813 83.8126 18.0133 83.4713 17.736C83.1406 17.4587 82.6926 17.32 82.1273 17.32C81.6046 17.32 81.1886 17.432 80.8793 17.656C80.5699 17.88 80.4153 18.1733 80.4153 18.536C80.4153 18.824 80.5059 19.064 80.6873 19.256C80.8793 19.4373 81.1139 19.5867 81.3913 19.704C81.6793 19.8107 82.0739 19.9333 82.5753 20.072C83.2046 20.2427 83.7166 20.4133 84.1113 20.584C84.5059 20.744 84.8419 20.9893 85.1193 21.32C85.4073 21.6507 85.5566 22.0827 85.5673 22.616C85.5673 23.096 85.4339 23.528 85.1673 23.912C84.9006 24.296 84.5219 24.6 84.0313 24.824C83.5513 25.0373 82.9966 25.144 82.3673 25.144Z" fill="black"/>
<line x1="295.5" x2="295.5" y2="102.005" stroke="#C2C2C2"/>
<line x1="730.5" x2="730.5" y2="102.005" stroke="#C2C2C2"/>
<defs>
<filter id="filter0_d_2_1941" x="0" y="42" width="62" height="62" filterUnits="userSpaceOnUse" color-interpolation-filters="sRGB">
<feFlood flood-opacity="0" result="BackgroundImageFix"/>
<feColorMatrix in="SourceAlpha" type="matrix" values="0 0 0 0 0 0 0 0 0 0 0 0 0 0 0 0 0 0 127 0" result="hardAlpha"/>
<feOffset dy="4"/>
<feGaussianBlur stdDeviation="7"/>
<feColorMatrix type="matrix" values="0 0 0 0 0 0 0 0 0 0 0 0 0 0 0 0 0 0 0.15 0"/>
<feBlend mode="normal" in2="BackgroundImageFix" result="effect1_dropShadow_2_1941"/>
<feBlend mode="normal" in="SourceGraphic" in2="effect1_dropShadow_2_1941" result="shape"/>
</filter>
<filter id="filter1_d_2_1941" x="50" y="42" width="62" height="62" filterUnits="userSpaceOnUse" color-interpolation-filters="sRGB">
<feFlood flood-opacity="0" result="BackgroundImageFix"/>
<feColorMatrix in="SourceAlpha" type="matrix" values="0 0 0 0 0 0 0 0 0 0 0 0 0 0 0 0 0 0 127 0" result="hardAlpha"/>
<feOffset dy="4"/>
<feGaussianBlur stdDeviation="7"/>
<feColorMatrix type="matrix" values="0 0 0 0 0 0 0 0 0 0 0 0 0 0 0 0 0 0 0.15 0"/>
<feBlend mode="normal" in2="BackgroundImageFix" result="effect1_dropShadow_2_1941"/>
<feBlend mode="normal" in="SourceGraphic" in2="effect1_dropShadow_2_1941" result="shape"/>
</filter>
<filter id="filter2_d_2_1941" x="100" y="42" width="62" height="62" filterUnits="userSpaceOnUse" color-interpolation-filters="sRGB">
<feFlood flood-opacity="0" result="BackgroundImageFix"/>
<feColorMatrix in="SourceAlpha" type="matrix" values="0 0 0 0 0 0 0 0 0 0 0 0 0 0 0 0 0 0 127 0" result="hardAlpha"/>
<feOffset dy="4"/>
<feGaussianBlur stdDeviation="7"/>
<feColorMatrix type="matrix" values="0 0 0 0 0 0 0 0 0 0 0 0 0 0 0 0 0 0 0.15 0"/>
<feBlend mode="normal" in2="BackgroundImageFix" result="effect1_dropShadow_2_1941"/>
<feBlend mode="normal" in="SourceGraphic" in2="effect1_dropShadow_2_1941" result="shape"/>
</filter>
<filter id="filter3_d_2_1941" x="150" y="42" width="62" height="62" filterUnits="userSpaceOnUse" color-interpolation-filters="sRGB">
<feFlood flood-opacity="0" result="BackgroundImageFix"/>
<feColorMatrix in="SourceAlpha" type="matrix" values="0 0 0 0 0 0 0 0 0 0 0 0 0 0 0 0 0 0 127 0" result="hardAlpha"/>
<feOffset dy="4"/>
<feGaussianBlur stdDeviation="7"/>
<feColorMatrix type="matrix" values="0 0 0 0 0 0 0 0 0 0 0 0 0 0 0 0 0 0 0.15 0"/>
<feBlend mode="normal" in2="BackgroundImageFix" result="effect1_dropShadow_2_1941"/>
<feBlend mode="normal" in="SourceGraphic" in2="effect1_dropShadow_2_1941" result="shape"/>
</filter>
<clipPath id="clip0_2_1941">
<rect width="30" height="30" fill="white" transform="translate(400 39)"/>
</clipPath>
<clipPath id="clip1_2_1941">
<rect width="12" height="12" fill="white" transform="translate(25 63)"/>
</clipPath>
<clipPath id="clip2_2_1941">
<rect width="13" height="13" fill="white" transform="translate(75 62)"/>
</clipPath>
<clipPath id="clip3_2_1941">
<rect width="13" height="13" fill="white" transform="translate(124 63)"/>
</clipPath>
<clipPath id="clip4_2_1941">
<rect width="11" height="11" fill="white" transform="translate(175 63)"/>
</clipPath>
</defs>
</svg>
